<?xml version="1.0" encoding="iso-8859-1"?>
<!-- Generator: Adobe Illustrator 19.0.0, SVG Export Plug-In . SVG Version: 6.00 Build 0)  -->
<svg version="1.1" id="Capa_1" xmlns="http://www.w3.org/2000/svg" xmlns:xlink="http://www.w3.org/1999/xlink" x="0px" y="0px"
	 viewBox="0 0 512.001 512.001" style="enable-background:new 0 0 512.001 512.001;" xml:space="preserve">
<path style="fill:#75E0F1;" d="M350.062,0.018c-89.294,0-161.938,65.381-161.938,145.744c0,41.682,19.665,81.073,54.12,108.748
	l-5.504,60.555c-0.551,6.065,5.854,10.629,11.414,8.104l74.315-33.779c9.097,1.406,18.367,2.118,27.594,2.118
	c89.294,0,161.938-65.38,161.938-145.744S439.355,0.018,350.062,0.018z"/>
<path style="fill:#53D9ED;" d="M274.631,254.51c-34.454-27.674-54.12-67.067-54.12-108.748c0-75.445,64.026-137.682,145.744-145.018
	c-5.328-0.479-10.729-0.727-16.194-0.727c-89.294,0-161.938,65.381-161.938,145.744c0,41.682,19.665,81.073,54.12,108.748
	l-5.504,60.555c-0.551,6.065,5.854,10.629,11.414,8.104l21.109-9.595L274.631,254.51z"/>
<path style="fill:#FFEFCF;" d="M414.999,145.129c7.138-8.101,17.926-20.343,17.926-49.149c0-26.781-22.766-46.975-52.957-46.975
	c-10.708,0-21.213,4.125-29.817,11.533c-8.624-7.408-19.193-11.533-29.996-11.533c-30.189,0-52.956,20.195-52.956,46.975
	c0,28.806,10.787,41.048,17.925,49.149c5.591,6.346,6.451,7.321,3.735,13.295c-13.045,28.7-5.716,66.156,4.589,82.159
	c5.34,8.293,10.966,10.035,14.744,10.035c5.63,0,10.007-3.756,13.007-11.166c1.735-4.283,3.107-9.643,4.696-15.85
	c5.433-21.216,11.002-38.778,24.167-38.778s18.734,17.562,24.166,38.778c1.589,6.206,2.961,11.566,4.696,15.85
	c3,7.409,7.375,11.166,13.007,11.166c3.778,0,9.405-1.741,14.745-10.035c10.305-16.005,17.633-53.46,4.588-82.159
	C408.549,152.449,409.408,151.474,414.999,145.129z"/>
<g>
	<path style="fill:#FFE5AB;" d="M395.118,239.451c-1.735-4.283-3.106-9.643-4.696-15.85c-5.432-21.216-11.001-38.778-24.166-38.778
		c-3.086,0-5.75,0.976-8.097,2.726c7.667,5.718,11.911,19.809,16.069,36.053c1.589,6.206,2.961,11.566,4.696,15.85
		c3,7.409,7.375,11.166,13.007,11.166c2.298,0,5.281-0.655,8.466-3.025C398.328,245.73,396.561,243.018,395.118,239.451z"/>
	<path style="fill:#FFE5AB;" d="M309.642,240.583c-10.306-16.005-17.634-53.46-4.589-82.159c2.716-5.973,1.856-6.949-3.735-13.295
		c-7.137-8.101-17.925-20.343-17.925-49.149c0-24.052,18.369-42.781,43.98-46.35c-2.382-0.406-4.793-0.625-7.218-0.625
		c-30.189,0-52.956,20.195-52.956,46.975c0,28.806,10.787,41.048,17.925,49.149c5.591,6.346,6.451,7.321,3.735,13.295
		c-13.045,28.7-5.716,66.156,4.589,82.159c5.34,8.293,10.966,10.035,14.744,10.035c2.92,0,5.5-1.019,7.728-3.025
		C313.869,246.065,311.734,243.832,309.642,240.583z"/>
</g>
<path style="fill:#FFD782;" d="M266.828,418.866c-31.052-7.741-76.349-25.739-115.804-67.519
	c-35.321-37.405-50.963-78.357-57.865-106.125c-1.953-7.858-5.999-15.026-11.701-20.727c-10.996-10.993-27.191-15.499-42.26-11.748
	c-23.829,5.923-38.398,30.13-32.476,53.96c9.473,38.113,30.965,94.346,79.545,145.792c54.256,57.451,116.419,82.169,159.013,92.791
	c3.598,0.897,7.239,1.34,10.854,1.34c7.98,0,15.839-2.162,22.857-6.378c10.196-6.127,17.396-15.858,20.274-27.399
	C305.205,449.026,290.655,424.808,266.828,418.866z"/>
<g>
	<path style="fill:#FFCA58;" d="M271.653,491.108c-3.615,0-7.255-0.443-10.854-1.34c-42.594-10.621-104.756-35.34-159.013-92.791
		c-48.58-51.446-70.071-107.679-79.545-145.792c-2.944-11.846-0.821-23.782,4.982-33.521c-16.458,9.774-25.349,29.53-20.5,49.041
		c9.473,38.113,30.965,94.346,79.545,145.792c54.256,57.451,116.419,82.169,159.013,92.791c3.598,0.897,7.239,1.34,10.854,1.34
		c7.98,0,15.839-2.162,22.857-6.378c6.429-3.863,11.663-9.162,15.377-15.44C287.386,488.971,279.58,491.108,271.653,491.108z"/>
	<path style="fill:#FFCA58;" d="M330.514,479.223l-91.606-91.606c-1.518-1.518-3.578-2.371-5.726-2.371
		c-2.148,0-4.207,0.853-5.726,2.371c-28.412,28.414-28.412,74.645,0,103.057c14.207,14.206,32.867,21.309,51.529,21.309
		c18.661,0,37.322-7.103,51.529-21.309C333.677,487.511,333.677,482.386,330.514,479.223z"/>
</g>
<path style="fill:#FFD782;" d="M267.535,370.44c-2.627-2.627-6.705-3.127-9.89-1.218l-28.628,17.177l102.714,102.715l17.177-28.627
	c1.912-3.186,1.41-7.265-1.218-9.891L267.535,370.44z"/>
<path style="fill:#FFCA58;" d="M124.401,273.109l-91.606-91.606c-3.162-3.161-8.288-3.161-11.45,0C7.58,195.268,0,213.567,0,233.033
	c0,19.464,7.58,37.765,21.343,51.529c14.207,14.206,32.868,21.308,51.529,21.308s37.322-7.103,51.529-21.309
	c1.518-1.519,2.371-3.578,2.371-5.726C126.772,276.687,125.919,274.628,124.401,273.109z"/>
<path style="fill:#FFD782;" d="M142.794,254.375c1.912-3.186,1.41-7.265-1.218-9.891l-80.155-80.156
	c-2.627-2.627-6.705-3.128-9.891-1.218l-28.627,17.177l102.715,102.715L142.794,254.375z"/>
<g>
</g>
<g>
</g>
<g>
</g>
<g>
</g>
<g>
</g>
<g>
</g>
<g>
</g>
<g>
</g>
<g>
</g>
<g>
</g>
<g>
</g>
<g>
</g>
<g>
</g>
<g>
</g>
<g>
</g>
</svg>
