<?xml version="1.0" encoding="iso-8859-1"?>
<!-- Generator: Adobe Illustrator 19.0.0, SVG Export Plug-In . SVG Version: 6.00 Build 0)  -->
<svg version="1.1" id="Capa_1" xmlns="http://www.w3.org/2000/svg" xmlns:xlink="http://www.w3.org/1999/xlink" x="0px" y="0px"
	 viewBox="0 0 409.6 409.6" style="enable-background:new 0 0 409.6 409.6;" xml:space="preserve">
<g>
	<path style="fill:#EA3457;" d="M6.827,286.72c0,0,38.277-26.665,91.034-10.694c32.079,9.711,69.509-42.629,106.94-42.629
		s74.861,52.34,106.94,42.629c52.757-15.974,91.034,10.694,91.034,10.694v116.053H6.827V286.72z"/>
	<path style="fill:#EA3457;" d="M402.773,409.6H6.827C3.055,409.6,0,406.542,0,402.773V286.72c0-2.232,1.092-4.328,2.925-5.601
		c1.673-1.167,41.632-28.365,96.915-11.626c13.865,4.202,30.812-6.99,48.739-18.831c17.947-11.848,36.492-24.095,56.221-24.095
		s38.274,12.247,56.214,24.095c17.947,11.848,34.925,23.016,48.746,18.828c55.279-16.736,95.246,10.462,96.915,11.629
		c1.833,1.273,2.925,3.369,2.925,5.601v116.053C409.6,406.542,406.545,409.6,402.773,409.6z M13.653,395.947h382.293v-105.39
		c-9.527-5.356-41.434-20.337-82.227-8.001c-19.992,6.059-40.441-7.441-60.228-20.5c-16.258-10.732-33.072-21.832-48.691-21.832
		c-15.626,0-32.433,11.1-48.695,21.832c-19.78,13.059-40.219,26.559-60.228,20.504c-40.759-12.343-72.68,2.632-82.227,8.001v105.387
		H13.653z"/>
</g>
<path style="fill:#00E7FF;" d="M179.688,6.827c-17.773,0-29.501,20.412-29.501,45.592s11.728,104.595,29.501,104.595
	c10.37,0,11.547-65.949,25.477-66.007c16.613,0.058,15.111,66.007,25.477,66.007c17.773,0,29.501-79.415,29.501-104.595
	S248.419,6.827,230.642,6.827c-8.492,0-16.985,8.045-25.477,8.045S188.18,6.827,179.688,6.827z"/>
<path style="fill:#602F75;" d="M230.646,163.84c-10.308,0-12.612-13.073-16.101-32.857c-1.666-9.472-5.035-28.58-8.96-32.635
	c-3.308,4.543-6.666,21.327-8.533,30.655c-4.192,20.978-6.967,34.836-17.364,34.836c-7.421,0-18.401-4.997-28.075-48.189
	c-5.359-23.917-8.253-50.429-8.253-63.232C143.36,22.047,158.641,0,179.688,0c5.779,0,11.032,2.488,15.66,4.68
	c3.659,1.731,7.107,3.366,9.82,3.366s6.161-1.635,9.82-3.366C219.614,2.488,224.867,0,230.646,0
	c21.047,0,36.328,22.047,36.328,52.419c0,12.803-2.895,39.315-8.253,63.229C249.047,158.843,238.066,163.84,230.646,163.84z
	 M179.688,13.653c-12.93,0-22.675,16.667-22.675,38.765c0,30.805,11.708,87.491,21.125,96.645c1.932-4.785,4.048-15.34,5.526-22.74
	c4.519-22.586,8.421-42.093,21.473-42.148c15.039,0.055,19.012,22.617,22.852,44.435c1.161,6.564,2.792,15.858,4.4,20.395
	c9.254-9.267,20.927-65.826,20.927-96.587c0-22.101-9.745-38.765-22.675-38.765c-2.714,0-6.161,1.635-9.82,3.366
	c-4.625,2.195-9.882,4.68-15.66,4.68s-11.032-2.488-15.66-4.68C185.846,15.288,182.402,13.653,179.688,13.653z"/>
<path style="fill:#FFFFFF;" d="M288.915,177.493c-17.773,0-29.501,20.412-29.501,45.592s11.728,104.595,29.501,104.595
	c10.37,0,11.547-65.949,25.477-66.007c16.613,0.061,15.111,66.007,25.477,66.007c17.773,0,29.501-79.415,29.501-104.595
	s-11.728-45.592-29.501-45.592c-8.492,0-16.985,8.045-25.477,8.045C305.9,185.539,297.407,177.493,288.915,177.493z"/>
<path style="fill:#602F75;" d="M339.872,334.507c-10.308,0-12.612-13.073-16.101-32.857c-1.666-9.472-5.035-28.576-8.96-32.635
	c-3.308,4.543-6.666,21.327-8.533,30.655c-4.192,20.978-6.967,34.836-17.364,34.836c-7.421,0-18.401-4.997-28.075-48.189
	c-5.359-23.917-8.253-50.429-8.253-63.232c0-30.372,15.281-52.419,36.328-52.419c5.779,0,11.032,2.488,15.66,4.68
	c3.659,1.731,7.107,3.366,9.82,3.366s6.161-1.635,9.82-3.366c4.625-2.195,9.882-4.68,15.66-4.68
	c21.047,0,36.328,22.047,36.328,52.419c0,12.803-2.895,39.315-8.253,63.229C358.274,329.51,347.293,334.507,339.872,334.507z
	 M288.915,184.32c-12.93,0-22.675,16.667-22.675,38.765c0,30.805,11.708,87.491,21.125,96.645c1.932-4.785,4.048-15.34,5.526-22.74
	c4.519-22.583,8.421-42.09,21.473-42.148c15.039,0.055,19.012,22.617,22.852,44.435c1.161,6.564,2.792,15.858,4.4,20.395
	c9.254-9.267,20.927-65.826,20.927-96.587c0-22.101-9.745-38.765-22.675-38.765c-2.714,0-6.161,1.635-9.82,3.366
	c-4.625,2.195-9.882,4.68-15.66,4.68s-11.032-2.488-15.66-4.68C295.072,185.955,291.628,184.32,288.915,184.32z"/>
<path style="fill:#FFFFFF;" d="M70.461,177.493c-17.773,0-29.501,20.412-29.501,45.592S52.688,327.68,70.461,327.68
	c10.37,0,11.547-65.949,25.477-66.007c16.613,0.058,15.111,66.007,25.477,66.007c17.773,0,29.501-79.415,29.501-104.595
	c0-25.18-11.725-45.592-29.501-45.592c-8.492,0-16.985,8.045-25.477,8.045S78.954,177.493,70.461,177.493z"/>
<path style="fill:#602F75;" d="M121.419,334.507c-10.308,0-12.612-13.073-16.101-32.86c-1.666-9.469-5.035-28.576-8.96-32.635
	c-3.308,4.543-6.666,21.327-8.533,30.655c-4.192,20.978-6.967,34.84-17.364,34.84c-7.421,0-18.401-4.997-28.075-48.189
	c-5.359-23.917-8.253-50.429-8.253-63.232c0-30.372,15.281-52.419,36.328-52.419c5.779,0,11.032,2.488,15.66,4.68
	c3.659,1.731,7.107,3.366,9.82,3.366c2.714,0,6.161-1.635,9.82-3.366c4.625-2.191,9.878-4.68,15.657-4.68
	c21.047,0,36.328,22.047,36.328,52.419c0,12.803-2.895,39.315-8.253,63.229C139.82,329.51,128.84,334.507,121.419,334.507z
	 M70.461,184.32c-12.93,0-22.675,16.667-22.675,38.765c0,30.805,11.708,87.491,21.125,96.645c1.932-4.785,4.048-15.34,5.526-22.74
	c4.519-22.586,8.421-42.093,21.473-42.151c15.039,0.055,19.012,22.617,22.852,44.438c1.161,6.564,2.792,15.858,4.4,20.395
	c9.254-9.267,20.927-65.826,20.927-96.587c0-22.101-9.745-38.765-22.675-38.765c-2.714,0-6.161,1.635-9.82,3.366
	c-4.625,2.195-9.882,4.68-15.66,4.68c-5.779,0-11.032-2.488-15.66-4.68C76.619,185.955,73.175,184.32,70.461,184.32z"/>
<g>
	<path style="fill:#FFE600;" d="M204.8,293.547c-3.772,0-6.827-3.058-6.827-6.827v-102.4c0-3.768,3.055-6.827,6.827-6.827
		s6.827,3.058,6.827,6.827v102.4C211.627,290.488,208.572,293.547,204.8,293.547z"/>
	<path style="fill:#FFE600;" d="M204.8,300.373c-1.748,0-3.492-0.666-4.826-2l-27.307-27.307c-2.666-2.666-2.666-6.987,0-9.653
		c2.666-2.666,6.987-2.666,9.653,0l22.48,22.48l22.48-22.48c2.666-2.666,6.987-2.666,9.653,0s2.666,6.987,0,9.653l-27.307,27.307
		C208.292,299.708,206.548,300.373,204.8,300.373z"/>
</g>
<g>
</g>
<g>
</g>
<g>
</g>
<g>
</g>
<g>
</g>
<g>
</g>
<g>
</g>
<g>
</g>
<g>
</g>
<g>
</g>
<g>
</g>
<g>
</g>
<g>
</g>
<g>
</g>
<g>
</g>
</svg>
