<svg height="462pt" viewBox="0 -48 462.58 462" width="462pt" xmlns="http://www.w3.org/2000/svg"><path d="m459.488281 34.363281c1.03125 0 2.0625-.042969 3.089844-.132812-16.421875 4.515625-27.277344 20.113281-25.808594 37.082031-4.210937-15.3125-18.128906-25.929688-34.007812-25.941406-1.023438 0-2.042969.039062-3.070313.128906 15.308594-4.199219 25.929688-18.109375 25.9375-33.988281 0-1.03125-.039062-2.058594-.128906-3.089844 4.199219 15.3125 18.113281 25.929687 33.988281 25.941406zm0 0" fill="#00efd1"/><path d="m368.441406 15.632812c25.789063 25.796876 17.949219 78.449219-15.160156 134.027344-4.066406 6.867188-4.433594 15.3125-.972656 22.5 28.566406 59.539063 10.558594 130.988282-42.820313 169.871094-13.296875-65.121094-44.339843-110.78125-80.539062-110.78125s-67.238281 45.660156-80.550781 110.78125c-30.625-22.265625-50.640626-56.238281-55.269532-93.820312-.339844-2.75-.59375-5.523438-.757812-8.320313l-.132813-.550781c13.558594-3.191406 27.824219-1.128906 39.921875 5.773437-20.417968-17.148437-25.671875-46.4375-12.480468-69.613281-5.78125 6.914062-13.179688 12.292969-21.539063 15.660156 2-6.511718 4.484375-12.859375 7.4375-19 2.507813-5.183594 3.046875-11.097656 1.523437-16.648437-.5625-2.054688-1.398437-4.023438-2.492187-5.851563-33.109375-55.578125-40.949219-108.230468-15.160156-134.027344 22.761719-22.75 66.410156-19.332031 114.539062 4.519532 15.730469 7.78125 34.191407 7.78125 49.921875 0 48.121094-23.851563 91.769532-27.269532 114.53125-4.519532zm0 0" fill="#00acea"/><g fill="#00efd1"><path d="m98.140625 191.160156c8.359375-3.367187 15.757813-8.746094 21.539063-15.660156-13.191407 23.175781-7.9375 52.464844 12.480468 69.613281-23.171875-13.183593-52.453125-7.9375-69.609375 12.46875 13.1875-23.167969 7.941407-52.453125-12.472656-69.601562 14.691406 8.363281 32.398437 9.535156 48.0625 3.179687zm0 0"/><path d="m41.558594 316.992188c-7.5625 14.09375-3.980469 31.578124 8.519531 41.558593-14.09375-7.5625-31.578125-3.976562-41.558594 8.519531 2.589844-4.808593 3.941407-10.1875 3.941407-15.648437.003906-10.082031-4.582032-19.621094-12.460938-25.910156 14.09375 7.566406 31.582031 3.980469 41.558594-8.519531zm0 0"/></g></svg>